# xmcd
#
# Track frame offsets:
#	182
#	9567
#	20635
#	31395
#	45045
#	56670
#	66512
#	77347
#	88132
#	101357
#	113252
#	124100
#	136512
#	145977
#	160535
#	169902
#	180495
#	190832
#	203645
#	216782
#	232072
#	249305
#	266260
#	279662
#	293067
#	303557
#	317002
#
# Disc length: 4407
#
# Revision: 1
# Processed by: cddbd v1.5.1PL0 Copyright (c) Steve Scherf et al.
# Submitted via: ExactAudioCopy v0.95a3
# Normalized: r0:TDELIM( - )
#
DISCID=6811351b
DTITLE=Various Artist - Royal Memphis Soul
DYEAR=1996
DGENRE=Soul
TTITLE0=Bad and Good Boys - We Got Soul
TTITLE1=Don Bryant - I Like It Like That
TTITLE2=Willie Mitchell featuring Don Bryant - Everything Is Gonna Be Alright
TTITLE3=Janet and The Jays - Without A Reason
TTITLE4=Don Bryant - The Lonely Soldier
TTITLE5=1 and 1 - I Will Be True
TTITLE6=Norm West - Hey Little Girl
TTITLE7=Don Bryant - The Call Of Distress
TTITLE8=George Jackson - I'm Gonna Wait
TTITLE9=Don Bryant - Is That Asking Too Much?
TTITLE10=Don Bryant - There Is Something On Your Mind (Part 1)
TTITLE11=James Fry - Tumblin' Down
TTITLE12=Don Bryant - I'll Go Crazy
TTITLE13=Ann Peebles - Walk Away
TTITLE14=Don Bryant - You Cause Me To Wonder
TTITLE15=Lyndon - The Very First Time
TTITLE16=Lyndon - Love Map
TTITLE17=Al Green - You Say It
TTITLE18=Ann Peebles - Part Time Love
TTITLE19=Ann Peebles - I Still Love You
TTITLE20=Al Green - I Can't Get Next To You
TTITLE21=David Duke - Is It Over?
TTITLE22=Ann Peebles - I Pity The Fool
TTITLE23=Eddie McGee - What Made You Change?
TTITLE24=Eric Tigg - Treat Her Right
TTITLE25=Al Green - Tired Of Being Alone
TTITLE26=Ebony Web - This Morning
EXTD=
EXTT0=
EXTT1=
EXTT2=
EXTT3=
EXTT4=
EXTT5=
EXTT6=
EXTT7=
EXTT8=
EXTT9=
EXTT10=
EXTT11=
EXTT12=
EXTT13=
EXTT14=
EXTT15=
EXTT16=
EXTT17=
EXTT18=
EXTT19=
EXTT20=
EXTT21=
EXTT22=
EXTT23=
EXTT24=
EXTT25=
EXTT26=
PLAYORDER=
